<?xml version="1.0" standalone="no"?>
<!DOCTYPE svg PUBLIC "-//W3C//DTD SVG 20010904//EN"
 "http://www.w3.org/TR/2001/REC-SVG-20010904/DTD/svg10.dtd">
<svg version="1.0" xmlns="http://www.w3.org/2000/svg"
 width="256.000000pt" height="256.000000pt" viewBox="0 0 256.000000 256.000000"
 preserveAspectRatio="xMidYMid meet">
<metadata>
Created by potrace 1.11, written by Peter Selinger 2001-2013
</metadata>
<g transform="translate(0.000000,256.000000) scale(0.100000,-0.100000)"
fill="#000000" stroke="none">
<path d="M1426 2448 l5 -43 -23 37 c-24 40 -38 48 -38 24 0 -8 -10 -27 -22
-41 -22 -24 -25 -25 -58 -13 -21 7 -84 13 -158 13 l-123 0 -73 -79 -74 -79
-46 5 c-43 5 -46 4 -46 -18 0 -14 -6 -24 -14 -24 -14 0 -66 -61 -66 -79 0 -5
8 -14 17 -19 13 -8 7 -11 -26 -17 l-42 -7 8 -36 c13 -63 8 -114 -21 -207 -24
-77 -29 -107 -29 -205 0 -110 3 -123 52 -285 56 -187 62 -200 82 -200 8 -1 12
-7 10 -15 -14 -52 -12 -69 8 -80 17 -8 19 -15 11 -29 -7 -14 -5 -23 10 -36 53
-48 150 -254 150 -317 0 -50 -27 -139 -47 -159 -10 -9 -184 -92 -387 -184
-203 -91 -383 -176 -400 -187 -53 -36 -86 -71 -86 -90 0 -17 51 -18 1280 -18
l1280 0 0 65 c0 57 -3 66 -24 80 -35 23 -442 213 -589 276 -71 30 -137 61
-146 70 -11 10 -21 39 -24 69 -4 31 -18 71 -34 97 -60 96 -58 88 -30 172 37
108 58 197 51 215 -11 28 17 113 58 182 58 96 60 130 32 449 -27 302 -28 309
-54 343 -11 13 -22 39 -26 58 -4 23 -12 34 -23 34 -22 0 -49 31 -85 93 -23 41
-38 53 -89 77 -68 30 -96 56 -122 113 -23 49 -34 47 -29 -5z m-254 -544 c5 -4
49 12 100 36 148 71 221 57 314 -55 45 -55 64 -104 64 -163 0 -62 -13 -74 -65
-62 -90 21 -200 1 -213 -38 -7 -21 49 -35 89 -23 79 24 138 7 182 -51 59 -78
88 -257 70 -421 -7 -57 -10 -113 -6 -125 6 -25 -24 -170 -42 -194 -6 -10 -49
-45 -93 -79 -45 -33 -94 -76 -108 -94 -30 -40 -80 -60 -116 -46 -13 5 -36 7
-51 4 -55 -11 -94 6 -155 66 -42 42 -71 61 -105 71 -49 13 -96 59 -116 113 -5
14 -13 99 -16 188 -6 162 -7 164 -33 186 -26 20 -27 25 -27 115 0 74 5 103 22
140 26 57 58 75 144 82 50 4 68 10 81 26 23 29 23 36 -4 54 -30 21 -63 20
-133 -4 -73 -25 -92 -25 -105 -1 -28 54 1 161 52 190 20 11 32 29 40 59 8 33
13 40 24 31 10 -8 16 -4 28 19 25 48 42 57 71 38 35 -23 52 -20 60 12 7 26 8
26 24 -20 9 -26 19 -50 23 -54z m423 -1379 c-31 -83 -173 -254 -255 -309 -35
-23 -76 -20 -94 6 -25 35 -19 43 33 43 34 0 55 6 70 19 27 25 27 36 -1 36 -41
1 -107 38 -128 72 -19 31 -19 34 -3 46 11 8 56 12 133 12 114 0 118 1 158 29
22 17 53 46 68 65 16 19 30 33 33 31 2 -3 -4 -25 -14 -50z"/>
<path d="M1390 1500 c0 -31 6 -36 29 -21 10 6 20 3 31 -12 14 -17 31 -22 89
-25 66 -4 71 -3 71 16 0 11 -4 32 -10 46 -9 26 -11 26 -110 26 l-100 0 0 -30z"/>
<path d="M1051 1504 c-20 -8 -48 -12 -71 -8 -24 4 -47 1 -67 -10 -32 -16 -43
-49 -43 -130 l0 -39 23 20 c39 36 86 54 156 60 l67 6 -4 -149 c-3 -82 -8 -159
-13 -171 -4 -12 -26 -34 -49 -48 -53 -34 -54 -64 0 -129 22 -26 40 -54 40 -61
0 -7 16 -27 36 -45 46 -40 92 -39 112 3 l14 28 80 -7 80 -7 56 60 c32 32 65
62 75 66 27 10 21 45 -13 62 -16 8 -35 15 -41 15 -7 0 -26 12 -41 27 -24 22
-28 35 -28 78 0 43 -4 55 -27 77 -32 29 -72 52 -80 44 -3 -2 10 -32 28 -65 27
-49 36 -58 47 -48 12 9 14 8 11 -7 -4 -20 -101 -56 -152 -56 -39 0 -90 50 -83
82 16 73 36 253 31 277 -13 61 -87 99 -144 75z m265 -521 l59 -27 -30 -8 c-33
-9 -99 -2 -129 14 -18 10 -18 11 5 29 30 23 26 24 95 -8z m134 -58 c0 -2 -24
-17 -52 -32 -68 -35 -151 -37 -221 -5 -27 12 -46 26 -42 32 6 10 315 15 315 5z"/>
<path d="M1233 759 c-41 -12 -41 -20 -4 -42 43 -25 111 -21 111 8 0 31 -57 49
-107 34z"/>
</g>
</svg>
